# xmcd
#
# Track frame offsets:
# 150
# 21150
# 42837
# 57992
# 75444
# 96028
# 117607
# 142224
# 162831
# 177260
#
# Disc length: 2607 seconds
#
#
# Revision: 4
# Processed by: cddbd v1.5.2PL0 Copyright (c) Steve Scherf et al.
# Submitted via: FreeRIP 2.90 
#
DISCID=820a2d0a
DTITLE=CHILLIN' ON THE BEACH 02 - Thema - CHILLIN' ON THE BEACH
DYEAR=2006
DGENRE=Acoustic
TTITLE0=Serhat and Victor Lazlo - Total Disguise
TTITLE1=Jean Claude Maurice - Ultimo Tango Santiago
TTITLE2=Tom Jones - My Way
TTITLE3=Grupo Mamey - Obsession
TTITLE4=Caldera - Seagull's Theme
TTITLE5=Antaeus - Byzantine Mediation
TTITLE6=Goldtrix feat Andrea Brown - It's Love (Trippin')
TTITLE7=C:Real - My Finest Symphony
TTITLE8=Equaleyes - Over 'n' Over
TTITLE9=Tereza - Everybody's Got To Learn Sometime
EXTD=
EXTT0=
EXTT1=
EXTT2=
EXTT3=
EXTT4=
EXTT5=
EXTT6=
EXTT7=
EXTT8=
EXTT9=
PLAYORDER=
